<svg width="36" height="46" viewBox="0 0 36 46" fill="none" xmlns="http://www.w3.org/2000/svg">
<path d="M0.5 5.67259H4.81627C4.81627 5.67259 7.38789 5.53132 9.01404 7.52211L18.4385 19.584H11.8252C11.8252 19.584 8.89461 19.7141 7.70744 17.6941L0.5 5.67259Z" fill="url(#paint0_linear_602_24634)"/>
<path d="M15.3483 30.5194L19.229 37.0327C19.229 37.0327 20.6554 40.3296 25.3675 40.3296H35.2662L21.2485 23.1213L15.3483 24.489C15.3483 24.4886 13.7253 26.6597 15.3483 30.5194V30.5194Z" fill="url(#paint1_linear_602_24634)"/>
<path d="M23.3569 25.7123L21.0851 22.9177L15.36 24.4888C15.36 24.4888 13.737 26.6599 15.36 30.5196L15.5983 30.9314C15.5792 30.6761 15.4032 26.6933 23.3569 25.7123V25.7123Z" fill="url(#paint2_linear_602_24634)"/>
<path d="M15.5822 30.9208C15.5822 30.9208 13.7888 26.2399 19.6405 23.9977C19.6405 23.9977 23.8089 22.4837 26.5972 23.3812C26.5972 23.3812 26.4043 19.9615 19.5574 20.1856C19.5574 20.1856 15.9418 20.1577 13.0978 21.1669C13.0978 21.1669 10.0885 21.9796 12.3246 25.4831L15.5822 30.9208Z" fill="url(#paint3_linear_602_24634)"/>
<defs>
<linearGradient id="paint0_linear_602_24634" x1="9.46927" y1="5.67037" x2="9.46927" y2="19.5856" gradientUnits="userSpaceOnUse">
<stop offset="0.033" stop-color="#19AADE"/>
<stop offset="0.951" stop-color="#134E8E"/>
</linearGradient>
<linearGradient id="paint1_linear_602_24634" x1="24.9466" y1="23.1213" x2="24.9466" y2="40.3296" gradientUnits="userSpaceOnUse">
<stop offset="0.132" stop-color="#E02527"/>
<stop offset="0.742" stop-color="#A1141C"/>
</linearGradient>
<linearGradient id="paint2_linear_602_24634" x1="14.639" y1="26.9247" x2="23.3569" y2="26.9247" gradientUnits="userSpaceOnUse">
<stop offset="0.005" stop-color="#71251D"/>
<stop offset="0.742" stop-color="#C73127"/>
</linearGradient>
<linearGradient id="paint3_linear_602_24634" x1="11.4986" y1="25.5478" x2="26.5975" y2="25.5478" gradientUnits="userSpaceOnUse">
<stop offset="0.148" stop-color="#E8EBEE"/>
<stop offset="0.742" stop-color="#95A5AF"/>
</linearGradient>
</defs>
</svg>
