<svg width="24" height="24" viewBox="0 0 24 24" fill="none" xmlns="http://www.w3.org/2000/svg">
<path fill-rule="evenodd" clip-rule="evenodd" d="M7.42718 5.14286C7.27562 5.14286 7.13028 5.20306 7.02312 5.31022C6.91595 5.41739 6.85575 5.56273 6.85575 5.71429V8C6.85575 8.15155 6.91595 8.2969 7.02312 8.40406C7.13028 8.51122 7.27562 8.57143 7.42718 8.57143C7.57873 8.57143 7.72407 8.51122 7.83124 8.40406C7.9384 8.2969 7.99861 8.15155 7.99861 8V5.71429C7.99861 5.56273 7.9384 5.41739 7.83124 5.31022C7.72407 5.20306 7.57873 5.14286 7.42718 5.14286ZM7.42718 4C7.88183 4 8.31787 4.18061 8.63936 4.5021C8.96085 4.82359 9.14146 5.25963 9.14146 5.71429V8C9.14146 8.45466 8.96085 8.89069 8.63936 9.21218C8.31787 9.53367 7.88183 9.71429 7.42718 9.71429C6.97252 9.71429 6.53648 9.53367 6.21499 9.21218C5.8935 8.89069 5.71289 8.45466 5.71289 8V5.71429C5.71289 5.25963 5.8935 4.82359 6.21499 4.5021C6.53648 4.18061 6.97252 4 7.42718 4Z" fill="#303030"/>
<path fill-rule="evenodd" clip-rule="evenodd" d="M8 6.85707C8 6.54148 8.25584 6.28564 8.57143 6.28564H21.1429C21.4585 6.28564 21.7143 6.54148 21.7143 6.85707C21.7143 7.17266 21.4585 7.4285 21.1429 7.4285H8.57143C8.25584 7.4285 8 7.17266 8 6.85707Z" fill="#303030"/>
<path fill-rule="evenodd" clip-rule="evenodd" d="M2.28516 6.85707C2.28516 6.54148 2.54099 6.28564 2.85658 6.28564H6.28516C6.60075 6.28564 6.85659 6.54148 6.85659 6.85707C6.85659 7.17266 6.60075 7.4285 6.28516 7.4285H2.85658C2.54099 7.4285 2.28516 7.17266 2.28516 6.85707Z" fill="#303030"/>
<path fill-rule="evenodd" clip-rule="evenodd" d="M7.42718 16.5713C7.27562 16.5713 7.13028 16.6315 7.02312 16.7387C6.91595 16.8459 6.85575 16.9912 6.85575 17.1428V19.4285C6.85575 19.58 6.91595 19.7254 7.02312 19.8325C7.13028 19.9397 7.27562 19.9999 7.42718 19.9999C7.57873 19.9999 7.72407 19.9397 7.83124 19.8325C7.9384 19.7254 7.99861 19.58 7.99861 19.4285V17.1428C7.99861 16.9912 7.9384 16.8459 7.83124 16.7387C7.72407 16.6315 7.57873 16.5713 7.42718 16.5713ZM6.21499 15.9306C6.53648 15.6091 6.97252 15.4285 7.42718 15.4285C7.88183 15.4285 8.31787 15.6091 8.63936 15.9306C8.96085 16.2521 9.14146 16.6881 9.14146 17.1428V19.4285C9.14146 19.8831 8.96085 20.3192 8.63936 20.6407C8.31787 20.9621 7.88183 21.1428 7.42718 21.1428C6.97252 21.1428 6.53649 20.9621 6.21499 20.6407C5.8935 20.3192 5.71289 19.8831 5.71289 19.4285V17.1428C5.71289 16.6881 5.8935 16.2521 6.21499 15.9306Z" fill="#303030"/>
<path fill-rule="evenodd" clip-rule="evenodd" d="M8 18.2858C8 17.9702 8.25584 17.7144 8.57143 17.7144H21.1429C21.4585 17.7144 21.7143 17.9702 21.7143 18.2858C21.7143 18.6014 21.4585 18.8572 21.1429 18.8572H8.57143C8.25584 18.8572 8 18.6014 8 18.2858Z" fill="#303030"/>
<path fill-rule="evenodd" clip-rule="evenodd" d="M2.28516 18.2858C2.28516 17.9702 2.54099 17.7144 2.85658 17.7144H6.28516C6.60075 17.7144 6.85659 17.9702 6.85659 18.2858C6.85659 18.6014 6.60075 18.8572 6.28516 18.8572H2.85658C2.54099 18.8572 2.28516 18.6014 2.28516 18.2858Z" fill="#303030"/>
<path fill-rule="evenodd" clip-rule="evenodd" d="M16.5717 10.8572C16.4202 10.8572 16.2748 10.9174 16.1676 11.0246C16.0605 11.1317 16.0003 11.2771 16.0003 11.4286V13.7144C16.0003 13.8659 16.0605 14.0113 16.1676 14.1184C16.2748 14.2256 16.4202 14.2858 16.5717 14.2858C16.7233 14.2858 16.8686 14.2256 16.9758 14.1184C17.0829 14.0113 17.1431 13.8659 17.1431 13.7144V11.4286C17.1431 11.2771 17.0829 11.1317 16.9758 11.0246C16.8686 10.9174 16.7233 10.8572 16.5717 10.8572ZM16.5717 9.71436C17.0264 9.71436 17.4624 9.89497 17.7839 10.2165C18.1054 10.5379 18.286 10.974 18.286 11.4286V13.7144C18.286 14.169 18.1054 14.605 17.7839 14.9265C17.4624 15.248 17.0264 15.4286 16.5717 15.4286C16.1171 15.4286 15.681 15.248 15.3595 14.9265C15.038 14.605 14.8574 14.169 14.8574 13.7144V11.4286C14.8574 10.974 15.038 10.5379 15.3595 10.2165C15.681 9.89497 16.1171 9.71436 16.5717 9.71436Z" fill="#303030"/>
<path fill-rule="evenodd" clip-rule="evenodd" d="M2.28516 12.5714C2.28516 12.2558 2.54099 12 2.85658 12H15.428C15.7436 12 15.9994 12.2558 15.9994 12.5714C15.9994 12.887 15.7436 13.1429 15.428 13.1429H2.85658C2.54099 13.1429 2.28516 12.887 2.28516 12.5714Z" fill="#303030"/>
<path fill-rule="evenodd" clip-rule="evenodd" d="M17.1426 12.5714C17.1426 12.2558 17.3984 12 17.714 12H21.1426C21.4582 12 21.714 12.2558 21.714 12.5714C21.714 12.887 21.4582 13.1429 21.1426 13.1429H17.714C17.3984 13.1429 17.1426 12.887 17.1426 12.5714Z" fill="#303030"/>
</svg>
