<svg width="119" height="25" viewBox="0 0 119 25" fill="none" xmlns="http://www.w3.org/2000/svg">
<line x1="5.49219" y1="12.7888" x2="109.044" y2="12.7888" stroke="#CCCCCC" stroke-dasharray="3 3"/>
<path d="M58.0715 22.7073H56.7061C56.5689 22.7072 56.4339 22.6758 56.3134 22.6157C56.193 22.5557 56.0909 22.469 56.0166 22.3637C55.9422 22.2583 55.898 22.1376 55.8879 22.0125C55.8778 21.8875 55.9021 21.7621 55.9587 21.6479L59.2651 14.9799L54.3004 14.8792L52.4897 16.884C52.1445 17.2806 51.8691 17.4573 51.1664 17.4573H50.2472C50.1016 17.4616 49.9571 17.4337 49.8259 17.3761C49.6946 17.3185 49.5805 17.2328 49.4932 17.1263C49.3711 16.9759 49.2511 16.7209 49.368 16.3571L50.3846 13.029C50.3923 13.0042 50.4016 12.9793 50.4118 12.9549C50.4123 12.9526 50.4123 12.9502 50.4118 12.9479C50.4012 12.9235 50.3922 12.8987 50.3846 12.8734L49.367 9.52415C49.2567 9.16743 49.3772 8.91806 49.4983 8.77134C49.5796 8.67277 49.685 8.593 49.8062 8.53846C49.9274 8.48391 50.0608 8.45611 50.1959 8.45728H51.1664C51.6911 8.45728 52.2004 8.67243 52.5 9.01978L54.2732 10.9909L59.2651 10.9234L55.9598 4.26712C55.9031 4.15296 55.8786 4.02763 55.8886 3.9026C55.8986 3.77757 55.9428 3.65683 56.017 3.55141C56.0912 3.44599 56.1932 3.35926 56.3136 3.29914C56.4339 3.23902 56.5689 3.20744 56.7061 3.20728H58.0864C58.279 3.21081 58.4682 3.25395 58.64 3.33347C58.8118 3.413 58.9619 3.52688 59.0789 3.66665L65.4932 10.7917L68.4564 10.7204C68.6734 10.7096 69.2746 10.7059 69.4136 10.7059C72.2481 10.7073 73.9408 11.5482 73.9408 12.9573C73.9408 13.4007 73.7469 14.2229 72.4496 14.746C71.6838 15.0554 70.6621 15.212 69.4125 15.212C69.2751 15.212 68.6755 15.2082 68.4554 15.1974L65.4927 15.1252L59.0625 22.2502C58.9453 22.3894 58.7955 22.5027 58.6239 22.5818C58.4524 22.6609 58.2636 22.7038 58.0715 22.7073V22.7073Z" fill="#1262AE"/>
<circle cx="5.75195" cy="13.2888" r="4" fill="white" stroke="#1262AE" stroke-width="2"/>
<circle cx="113.102" cy="12.8718" r="4" fill="white" stroke="#1262AE" stroke-width="2"/>
</svg>
