<svg width="108" height="16" viewBox="0 0 108 16" fill="none" xmlns="http://www.w3.org/2000/svg">
<path d="M4.77078 8.03266L101.779 8.17057" stroke="#CACACA" stroke-width="0.836813" stroke-linecap="square" stroke-dasharray="1.67 4.18"/>
<path d="M50.616 15.6044H52.2688L56.4008 9.24466L60.946 9.24466C61.6319 9.24466 62.1855 8.71204 62.1855 8.0522C62.1855 7.39237 61.6319 6.85975 60.946 6.85975L56.4008 6.85975L52.2688 0.5L50.616 0.5L52.682 6.85978L48.1369 6.85978L46.8973 5.26983H45.6577L46.4841 8.05224L45.6577 10.8346H46.8973L48.1369 9.24466H52.682L50.616 15.6044Z" fill="#1262AE"/>
<circle cx="4.86719" cy="8" r="3.66319" fill="white" stroke="#1262AE" stroke-width="1.67363"/>
<path d="M106.639 8.68406C106.639 10.5024 105.098 12.0313 103.127 12.0313C101.156 12.0313 99.6142 10.5024 99.6142 8.68406C99.6142 6.8657 101.156 5.33681 103.127 5.33681C105.098 5.33681 106.639 6.8657 106.639 8.68406Z" fill="white" stroke="#1262AE" stroke-width="1.67363"/>
</svg>
