<svg width="36" height="46" viewBox="0 0 36 46" fill="none" xmlns="http://www.w3.org/2000/svg">
<path fill-rule="evenodd" clip-rule="evenodd" d="M35.0003 25.9753C35.1779 24.9919 35.2671 23.9951 35.2668 22.9965C35.2668 22.3816 35.2328 21.8028 35.1673 21.2506C35.1533 21.1308 33.1708 25.1056 29.999 27.6232C32.2055 25.6899 35.0837 20.6459 35.0431 20.4271C35.0082 20.2373 34.9688 20.0484 34.9249 19.8604C34.5457 18.2334 33.8618 16.7872 32.9298 15.2149C32.641 18.5515 31.6317 22.106 28.9836 25.1796C31.7319 21.9543 32.6881 14.6081 32.0332 13.5965C29.3972 9.55451 23.8466 6.01685 17.9042 6.01685L17.8624 6.12351V6.02432C11.9198 6.02432 6.36962 9.56178 3.73362 13.6035C3.07854 14.6152 4.03474 21.9614 6.783 25.1867C4.13511 22.1131 3.12565 18.5586 2.83706 15.222C1.90442 16.7944 1.22091 18.2402 0.841696 19.8674C0.79781 20.0554 0.7584 20.2444 0.723498 20.4342C0.682967 20.6529 3.56131 25.697 5.76781 27.6303C2.59578 25.1124 0.613364 21.1377 0.599147 21.2576C0.531661 21.8373 0.498573 22.4202 0.500047 23.0035C0.500047 24.0198 0.591295 25.0151 0.766364 25.9824C0.928276 26.877 4.61491 29.3401 4.7104 29.4175C2.03259 28.3944 0.927003 26.7853 1.02759 27.174C2.92852 34.5351 9.74474 39.983 17.8624 39.983V39.9753L17.9042 39.9757C26.0219 39.9757 32.8381 34.5282 34.7388 27.1667C34.8396 26.778 33.7342 28.3871 31.0562 29.4102C31.1515 29.333 34.8381 26.8701 35.0003 25.9753V25.9753ZM23.5168 26.629C23.3415 26.7035 23.1641 26.7676 22.9825 26.8158C21.3179 27.2592 19.0036 27.0963 17.9216 25.714C16.8271 24.3157 17.1301 22.0475 17.981 20.6158C18.8402 19.1704 20.13 18.0962 21.2761 16.8797C21.8252 16.2993 22.3847 15.7284 22.9543 15.1672C23.3239 14.8014 24.3327 14.0173 24.3119 13.4944C24.3024 13.2468 23.8423 12.8106 23.7144 12.5763C23.5278 12.2349 23.4113 11.8929 23.2117 11.5677C22.7699 10.8497 22.1767 10.5207 21.378 10.3668C20.3796 10.1744 19.6634 10.2601 18.8364 10.8017C18.2142 11.2093 17.5666 11.9693 16.8067 12.0494C15.606 12.176 10.3775 13.0237 10.1299 13.1769C10.7748 13.1302 18.6586 13.2794 19.5518 13.4944C20.602 13.7471 20.5544 14.5747 19.8414 15.2257C17.5991 17.2726 14.2959 18.4907 12.8877 21.307C12.229 22.6238 11.8065 23.5153 11.8048 25.0553C11.8042 25.6899 11.8549 26.9922 12.6566 28.6092C12.6195 28.5853 11.3895 27.1667 11.3401 25.9666C8.37305 24.0262 6.86406 21.1246 6.86406 17.3485C6.86406 11.3629 11.7798 6.51034 17.8435 6.51034C23.9073 6.51034 28.8228 11.3627 28.8228 17.3485C28.8232 21.2846 27.1026 24.9256 23.5168 26.629V26.629Z" fill="#B4282E"/>
<path fill-rule="evenodd" clip-rule="evenodd" d="M18.3178 29.917L16.8854 33.7659C16.0597 35.9842 12.5549 35.5181 12.4316 35.5181C12.1437 35.5181 11.9234 35.4869 11.7031 35.2834L12.2277 34.7123C12.3527 34.8063 12.5483 34.8611 12.7482 34.8611C12.9116 34.8611 14.7124 35.2433 15.2493 33.7659L16.6817 29.917H18.3178V29.917ZM28.4327 34.7436L28.191 35.3929H23.263L25.301 29.917H26.9547L25.158 34.7436H28.4327V34.7436ZM21.086 29.9307L16.7199 35.4062H17.5678L18.673 33.9199H20.6507L20.3212 35.4062H22.0632L23.4011 29.9307H21.086V29.9307ZM19.2485 33.1434L21.501 30.4476L20.8805 33.1434H19.2485V33.1434Z" fill="white"/>
</svg>
