<svg width="36" height="46" viewBox="0 0 36 46" fill="none" xmlns="http://www.w3.org/2000/svg">
<path fill-rule="evenodd" clip-rule="evenodd" d="M17.885 8.0842C9.27648 8.0842 2.23151 15.2875 2.23151 24.2577C2.23151 33.2272 9.2771 40.4299 17.885 40.4299C26.4921 40.4299 33.537 33.2273 33.537 24.2577C33.537 15.2875 26.4913 8.0842 17.885 8.0842ZM0.677734 24.2577C0.677734 14.5245 8.34247 6.5647 17.885 6.5647C27.4254 6.5647 35.0908 14.5245 35.0908 24.2577C35.0908 33.9903 27.426 41.9494 17.885 41.9494C8.34327 41.9494 0.677734 33.9904 0.677734 24.2577Z" fill="#CF4037"/>
<path fill-rule="evenodd" clip-rule="evenodd" d="M22.8449 20.5451C22.0879 15.2977 17.6645 12.7066 14.9013 11.1544C12.337 9.7148 10.0412 9.06061 9.9858 9.22936C12.9023 11.5746 14.7749 15.2282 14.7749 19.3332C14.7749 26.0647 9.73583 31.5837 3.33398 32.099L3.73877 32.724C11.9344 31.4476 33.8669 27.3759 33.8669 27.3759L33.9251 26.8974L20.6186 26.4418C22.0872 24.8897 23.0927 22.2549 22.8449 20.5451V20.5451Z" fill="#CF4037"/>
</svg>
