<svg width="27" height="24" viewBox="0 0 27 24" fill="none" xmlns="http://www.w3.org/2000/svg">
<path d="M23.7482 0.0537109H2.86091C1.42099 0.0537109 0.25 1.21378 0.25 2.64027V20.7462C0.25 22.1727 1.42099 23.3327 2.86091 23.3327H23.7482C25.1881 23.3327 26.3591 22.1727 26.3591 20.7462V2.64027C26.3591 1.21378 25.1881 0.0537109 23.7482 0.0537109ZM23.7495 7.81339C23.7482 7.81339 23.7482 7.81339 23.7495 7.81339H23.1425L19.6608 2.64027H23.7482L23.7495 7.81339ZM17.8737 15.5731L10.6937 19.4529V11.6932L17.8737 15.5731ZM16.6152 7.81339L13.1336 2.64027H16.5225L20.0042 7.81339H16.6152V7.81339ZM13.4769 7.81339H10.0879L6.60627 2.64027H9.99523L13.4769 7.81339ZM2.86091 2.64027H3.46795L6.9496 7.81339H2.86091V2.64027Z" fill="white"/>
</svg>
