<svg width="29" height="27" viewBox="0 0 29 27" fill="none" xmlns="http://www.w3.org/2000/svg">
<path d="M25.1747 4.76458C24.8595 3.90417 23.977 3.29167 22.9369 3.29167H18.997V1.83333C18.997 1.03125 18.2879 0.375 17.4211 0.375H11.1174C10.2507 0.375 9.54149 1.03125 9.54149 1.83333V3.29167H5.60168C4.56157 3.29167 3.69481 3.90417 3.36386 4.76458L0.259289 13.0333C0.148974 13.3396 0.0859375 13.6604 0.0859375 13.9958V24.4375C0.0859375 25.6479 1.14181 26.625 2.44983 26.625C3.75784 26.625 4.81371 25.6479 4.81371 24.4375V23.7083H23.7248V24.4375C23.7248 25.6333 24.7807 26.625 26.0887 26.625C27.381 26.625 28.4526 25.6479 28.4526 24.4375V13.9958C28.4526 13.675 28.3896 13.3396 28.2792 13.0333L25.1747 4.76458ZM5.60168 19.3333C4.29366 19.3333 3.23779 18.3563 3.23779 17.1458C3.23779 15.9354 4.29366 14.9583 5.60168 14.9583C6.9097 14.9583 7.96557 15.9354 7.96557 17.1458C7.96557 18.3563 6.9097 19.3333 5.60168 19.3333ZM22.9369 19.3333C21.6288 19.3333 20.573 18.3563 20.573 17.1458C20.573 15.9354 21.6288 14.9583 22.9369 14.9583C24.2449 14.9583 25.3007 15.9354 25.3007 17.1458C25.3007 18.3563 24.2449 19.3333 22.9369 19.3333ZM3.23779 12.0417L5.60168 5.47917H22.9369L25.3007 12.0417H3.23779Z" fill="white"/>
</svg>
