<svg width="25" height="24" viewBox="0 0 25 24" fill="none" xmlns="http://www.w3.org/2000/svg">
<g clip-path="url(#clip0_602_24769)">
<path d="M12.8727 21.8912C10.2494 21.8912 7.73348 20.8491 5.8785 18.9941C4.02352 17.1391 2.9814 14.6232 2.9814 11.9999C2.9814 9.37656 4.02352 6.86067 5.8785 5.00569C7.73348 3.15072 10.2494 2.1086 12.8727 2.1086C15.496 2.1086 18.0119 3.15072 19.8669 5.00569C21.7219 6.86067 22.764 9.37656 22.764 11.9999C22.764 14.6232 21.7219 17.1391 19.8669 18.9941C18.0119 20.8491 15.496 21.8912 12.8727 21.8912ZM12.8727 23.3042C15.8708 23.3042 18.7461 22.1133 20.8661 19.9933C22.9861 17.8733 24.177 14.998 24.177 11.9999C24.177 9.0018 22.9861 6.1265 20.8661 4.00652C18.7461 1.88655 15.8708 0.695557 12.8727 0.695557C9.8746 0.695557 6.9993 1.88655 4.87932 4.00652C2.75935 6.1265 1.56836 9.0018 1.56836 11.9999C1.56836 14.998 2.75935 17.8733 4.87932 19.9933C6.9993 22.1133 9.8746 23.3042 12.8727 23.3042V23.3042Z" fill="#1262AF"/>
<path d="M10.3499 7.19979C10.4832 7.13115 10.6329 7.10062 10.7824 7.11154C10.9319 7.12247 11.0756 7.17444 11.1975 7.26173L16.9021 11.3365C17.0078 11.4119 17.0939 11.5114 17.1533 11.6268C17.2127 11.7422 17.2437 11.8701 17.2437 11.9999C17.2437 12.1297 17.2127 12.2576 17.1533 12.3729C17.0939 12.4883 17.0078 12.5879 16.9021 12.6632L11.1975 16.738C11.0756 16.8252 10.932 16.8772 10.7826 16.8881C10.6331 16.899 10.4835 16.8685 10.3503 16.8C10.217 16.7314 10.1053 16.6274 10.0273 16.4995C9.94928 16.3715 9.90808 16.2245 9.9082 16.0746V7.9251C9.90805 7.77529 9.94919 7.62832 10.0271 7.50037C10.105 7.37241 10.2167 7.26841 10.3499 7.19979V7.19979Z" fill="#1262AF"/>
</g>
<defs>
<clipPath id="clip0_602_24769">
<rect width="24" height="24" fill="white" transform="translate(0.873047)"/>
</clipPath>
</defs>
</svg>
