<svg width="25" height="25" viewBox="0 0 25 25" fill="none" xmlns="http://www.w3.org/2000/svg">
<g clip-path="url(#clip0_602_24821)">
<path d="M12.8727 22.6185C10.2494 22.6185 7.73348 21.5764 5.8785 19.7214C4.02352 17.8664 2.9814 15.3505 2.9814 12.7272C2.9814 10.1039 4.02352 7.58797 5.8785 5.73299C7.73348 3.87801 10.2494 2.83589 12.8727 2.83589C15.496 2.83589 18.0119 3.87801 19.8669 5.73299C21.7219 7.58797 22.764 10.1039 22.764 12.7272C22.764 15.3505 21.7219 17.8664 19.8669 19.7214C18.0119 21.5764 15.496 22.6185 12.8727 22.6185ZM12.8727 24.0315C15.8708 24.0315 18.7461 22.8405 20.8661 20.7206C22.9861 18.6006 24.177 15.7253 24.177 12.7272C24.177 9.7291 22.9861 6.85379 20.8661 4.73382C18.7461 2.61384 15.8708 1.42285 12.8727 1.42285C9.8746 1.42285 6.9993 2.61384 4.87932 4.73382C2.75935 6.85379 1.56836 9.7291 1.56836 12.7272C1.56836 15.7253 2.75935 18.6006 4.87932 20.7206C6.9993 22.8405 9.8746 24.0315 12.8727 24.0315V24.0315Z" fill="#1262AF"/>
<path d="M10.3499 7.92709C10.4832 7.85845 10.6329 7.82791 10.7824 7.83884C10.9319 7.84977 11.0756 7.90173 11.1975 7.98902L16.9021 12.0638C17.0078 12.1392 17.0939 12.2387 17.1533 12.3541C17.2127 12.4695 17.2437 12.5974 17.2437 12.7272C17.2437 12.8569 17.2127 12.9849 17.1533 13.1002C17.0939 13.2156 17.0078 13.3152 16.9021 13.3905L11.1975 17.4653C11.0756 17.5525 10.932 17.6045 10.7826 17.6154C10.6331 17.6263 10.4835 17.5958 10.3503 17.5272C10.217 17.4587 10.1053 17.3547 10.0273 17.2267C9.94928 17.0988 9.90808 16.9518 9.9082 16.8019V8.6524C9.90805 8.50258 9.94919 8.35562 10.0271 8.22766C10.105 8.0997 10.2167 7.9957 10.3499 7.92709V7.92709Z" fill="#1262AF"/>
</g>
<defs>
<clipPath id="clip0_602_24821">
<rect width="24" height="24" fill="white" transform="translate(0.873047 0.727295)"/>
</clipPath>
</defs>
</svg>
